PathFileType	4	(X/Y/Z)	OpenSim_Sub08_EMGBaseline_Gyro.trc
DataRate	CameraRate	NumFrames	NumMarkers	Units	OrigDataRate	OrigDataStartFrame	OrigNumFrames
100	100	37	8	m	100	5823	6654
Frame#	Time	torso_imu_offset_imu	pelvis_imu_offset_imu	tibia_r_imu_offset_imu	femur_r_imu_offset_imu	tibia_l_imu_offset_imu	femur_l_imu_offset_imu	toes_r_imu_offset_imu	toes_l_imu_offset_imu
				X1	Y1	Z1	X2	Y2	Z2	X3	Y3	Z3	X4	Y4	Z4	X5	Y5	Z5	X6	Y6	Z6	X7	Y7	Z7	X8		Y8	Z8	

5823	58.22000000	-1.12208787	-0.16793660	-0.12183870	-0.61192994	0.04865678	-0.48462131	0.25879308	-0.41880738	-0.88174708	-1.96663703	0.47645470	2.47237025	-0.60073552	-0.61421909	0.71789387	-2.49674443	-0.63647839	0.32807257	-4.93524119	-0.10365087	-2.28548626	-0.36175801	-0.18286964	0.53316292
5824	58.23000000	-1.14993706	-0.22425119	-0.10525632	-0.59192025	-0.06557580	-0.32344233	0.15751156	-0.27085195	-0.77515002	-1.80662458	0.25429303	2.39046018	-0.54183736	-0.54701828	0.72050801	-2.43086818	-0.74647395	0.44229273	-5.42314877	1.73038261	-1.83186913	-0.41332571	-0.18969022	0.60872560
5825	58.24000000	-1.17291214	-0.28200810	-0.06146202	-0.64151785	-0.07102844	-0.15548372	0.11925463	-0.47696610	-0.61771611	-1.68637328	0.07381177	2.30324485	-0.61303468	-0.53343174	0.64025946	-1.76335804	-0.85371967	0.60600783	-3.10575100	2.78064033	-1.77555819	-0.47017258	-0.09157539	0.66480591
5826	58.25000000	-1.18070975	-0.32767536	-0.02830012	-0.76262959	-0.04072747	-0.01225747	-0.60472917	-0.83846511	-0.16759961	-1.57575532	-0.03271634	2.13208872	-0.71431844	-0.48761624	0.57481643	-0.88919845	-0.87950006	0.76273047	-0.87717636	2.76412809	-1.85622989	-0.45644727	-0.08403286	0.62519930
5827	58.26000000	-1.17864580	-0.34543561	-0.01209983	-0.88171751	-0.02463280	0.09527031	-1.94066986	-0.87224568	0.54636756	-1.41940315	-0.10812920	1.92587896	-0.58727838	-0.42341530	0.55396259	-0.19546393	-0.83055611	0.86336869	0.56072287	2.99743486	-1.57084372	-0.32739109	-0.12349751	0.53513672
5828	58.27000000	-1.18033430	-0.34549254	0.00541549	-0.94196829	-0.02522442	0.18075952	-2.78791462	-0.53060979	1.30519143	-1.14043340	-0.19134699	1.79795632	-0.26639899	-0.40808865	0.58648839	0.22585400	-0.69552185	0.85094996	0.54262976	2.95767188	-0.83342451	-0.32085801	-0.06830944	0.39833203
5829	58.28000000	-1.16269695	-0.33637401	0.02257387	-0.93670722	-0.05109291	0.24436733	-2.89808877	-0.27914948	1.90128068	-0.70184206	-0.25741243	1.72836894	0.17280561	-0.44516891	0.71168482	0.43955965	-0.50974712	0.75015490	0.29100816	3.14379405	0.06625080	-0.14069553	-0.11811624	0.22164561
5830	58.29000000	-1.12857898	-0.31940824	0.02259353	-0.87770485	-0.09928449	0.27829574	-2.71964394	-0.30140208	2.25564523	-0.19724607	-0.27468026	1.69346000	0.54148681	-0.37795453	0.78276090	0.54569858	-0.37653496	0.61712547	-0.83909508	3.19882974	1.00714508	0.03310446	-0.13514747	0.09067184
5831	58.30000000	-1.07946598	-0.30833246	0.01983018	-0.78388262	-0.15164335	0.29380158	-2.39175230	-0.40635956	2.48170616	0.30335469	-0.24515979	1.65059326	0.60385474	-0.30152833	0.74008132	0.58942581	-0.33272662	0.51422617	-1.53195647	3.29516815	1.75219065	0.03629990	-0.18102858	0.02140518
5832	58.31000000	-1.01694417	-0.30716777	0.02250947	-0.66160180	-0.19601525	0.31704471	-1.91103044	-0.41754774	2.71876691	0.77813392	-0.19741242	1.57199870	0.50857462	-0.25414907	0.72468965	0.60687875	-0.33252125	0.46782442	-1.89810947	3.42899591	2.26398707	0.07638852	-0.18992258	-0.02648586
5833	58.32000000	-0.95797985	-0.31629412	0.02453638	-0.53671823	-0.21533907	0.35400183	-1.31153252	-0.34321923	3.03885333	1.18723715	-0.16686052	1.49360667	0.40552794	-0.19851516	0.72482160	0.65571121	-0.31888530	0.46930944	-1.89900345	3.63519519	2.55197859	0.11410553	-0.19924069	-0.02496670
5834	58.33000000	-0.90372398	-0.32826138	0.02656688	-0.42826893	-0.21344098	0.40269904	-0.33162862	-0.28149375	3.44074890	1.49374543	-0.15213248	1.38343851	0.37538097	-0.17351110	0.71879417	0.78355580	-0.27653834	0.50120711	-1.69451532	3.87219495	2.66410460	0.08614053	-0.19796358	-0.00499339
5835	58.34000000	-0.85598136	-0.34537581	0.02203918	-0.33512202	-0.18733781	0.45650088	1.24335196	-0.27928700	3.83556893	1.66062856	-0.13672738	1.27856899	0.43812467	-0.13936507	0.75437845	0.99775102	-0.23314526	0.49818592	-1.58893586	4.02724838	2.72338560	0.12745848	-0.18365917	0.01407430
5836	58.35000000	-0.81260666	-0.36816195	0.02141385	-0.26247409	-0.14678710	0.49979980	3.07791046	-0.25807441	4.12176684	1.70177602	-0.12114991	1.17753131	0.55428890	-0.11504281	0.82521941	1.24182062	-0.22244953	0.44861367	-1.69368296	4.04564257	2.85512529	0.11072737	-0.13615472	0.04739866
5837	58.36000000	-0.76940792	-0.38723810	0.01993231	-0.20915390	-0.10288638	0.52734386	4.49400665	-0.09631561	4.29690191	1.69936829	-0.09377222	1.04603057	0.61007307	-0.10155044	0.85719385	1.36794574	-0.25456937	0.38061538	-1.90167826	3.86343906	3.05938414	0.12018732	-0.13416165	0.07197283
5838	58.37000000	-0.73077010	-0.40863298	0.02632430	-0.17501338	-0.06417670	0.54110062	5.02844910	0.15521708	4.37308817	1.69450508	-0.06211862	0.91407073	0.59824806	-0.12453454	0.83100578	1.27094311	-0.29654400	0.32212235	-1.97400404	3.50543170	3.31832397	0.11876946	-0.10862551	0.10423105
5839	58.38000000	-0.69106215	-0.43250422	0.03401092	-0.14729541	-0.05480143	0.53522095	4.56290572	0.40709192	4.32807194	1.67668844	-0.03672236	0.78380634	0.52053105	-0.16607711	0.83262216	0.99894673	-0.33421074	0.28918093	-1.80399547	3.22275092	3.56590419	0.08671564	-0.06439263	0.14636653
5840	58.39000000	-0.64855878	-0.44065974	0.04600659	-0.08534550	-0.06966830	0.51055426	3.40441274	0.65358076	4.18374635	1.59621059	-0.00517350	0.65980854	0.44325592	-0.17500798	0.85648297	0.64635065	-0.34488140	0.25679695	-1.40936098	3.14762546	3.62175865	0.09216524	-0.04179352	0.15625556
5841	58.40000000	-0.59618917	-0.43791660	0.06150531	0.01420443	-0.09159166	0.46795601	1.96687780	0.91721435	4.05582361	1.44061259	0.07019371	0.55677933	0.36430887	-0.18969643	0.84908771	0.29581702	-0.32049781	0.23217273	-1.15655917	3.18813750	3.42229182	0.02905707	-0.01853779	0.18215676
5842	58.41000000	-0.54770262	-0.44298315	0.06718964	0.14399137	-0.09534748	0.42157098	0.70605012	1.11348800	4.16273013	1.23315807	0.17807208	0.44041228	0.28800309	-0.26271355	0.81533741	0.05518303	-0.27475112	0.21378696	-1.31766570	3.24435592	3.06492741	0.02351263	0.02078904	0.21795475
5843	58.42000000	-0.49980641	-0.45386020	0.06042870	0.27890385	-0.08389207	0.37564907	0.16645443	1.14994179	4.54284788	1.00446192	0.29276730	0.32620975	0.15257696	-0.27269512	0.80223687	-0.02408546	-0.22332667	0.21812521	-1.69022543	3.29108099	2.68005692	0.00452959	0.04378342	0.25409349
5844	58.43000000	-0.44252299	-0.46752620	0.05332348	0.39538007	-0.08546850	0.32941252	0.13627857	1.10965422	4.93664549	0.78247155	0.37208482	0.22851665	0.02577910	-0.27617910	0.83365026	0.06645793	-0.19816779	0.22928283	-1.97434956	3.50131424	2.36020870	-0.00824689	0.06904808	0.29404281
5845	58.44000000	-0.39962386	-0.46648943	0.04401047	0.47152665	-0.09589332	0.28573108	0.08739565	1.12895361	5.13783967	0.59046119	0.37863681	0.13278295	-0.01072247	-0.31518471	0.85763110	0.24619354	-0.19857216	0.23508850	-2.05355623	3.79516699	2.14275169	0.00767498	0.11279614	0.35102243
5846	58.45000000	-0.36029488	-0.44068884	0.04165212	0.49517343	-0.10033720	0.24816508	-0.05183024	1.12903808	5.11446781	0.40657543	0.32362908	0.03156293	-0.01440560	-0.27225123	0.81609407	0.41909382	-0.21619014	0.24614118	-2.08632130	3.85838311	2.05206273	-0.02180326	0.09909898	0.39656456
5847	58.46000000	-0.32115466	-0.42600800	0.03779751	0.46901688	-0.10369396	0.22063722	-0.18990589	0.97250222	4.86754501	0.22618464	0.24598330	-0.06435350	0.02445970	-0.27024277	0.77245516	0.52886629	-0.22516784	0.27596247	-2.15294377	3.79115688	2.07337401	-0.06961130	0.09788818	0.39920368
5848	58.47000000	-0.28452955	-0.41223719	0.02481647	0.42240856	-0.11022269	0.18901893	-0.11686730	0.83510130	4.48028524	0.01478735	0.20918595	-0.15305536	0.04673144	-0.26284649	0.78686903	0.55528404	-0.21319812	0.32666526	-2.09089269	3.86092375	2.18787695	-0.02608891	0.10415773	0.37598830
5849	58.48000000	-0.25813415	-0.38771347	0.00780965	0.36697490	-0.12293796	0.15281478	0.24751092	0.91095492	4.10304770	-0.24926915	0.22780471	-0.24198714	0.07299736	-0.25298570	0.80783540	0.48382849	-0.20289771	0.38320143	-1.81819903	3.96858598	2.37280875	0.03859169	0.08952586	0.32173104
5850	58.49000000	-0.23827964	-0.35796206	-0.01011417	0.30906506	-0.13134000	0.10102748	0.66803476	1.16677576	3.93239028	-0.53351250	0.27119126	-0.32326171	0.12220339	-0.23309942	0.79326241	0.34002342	-0.18951678	0.45310663	-1.40397160	3.97545469	2.63172821	0.06817322	0.02313398	0.26186336
5851	58.50000000	-0.20899382	-0.32900644	-0.03272895	0.24837752	-0.13495992	0.03272393	0.93050058	1.38083773	3.99858048	-0.82028035	0.31644622	-0.40320537	0.15150567	-0.19407270	0.77248779	0.18918516	-0.17920378	0.52756017	-1.05366125	3.83867801	2.96135538	0.07793236	-0.00143211	0.22741262
5852	58.51000000	-0.17608849	-0.29002408	-0.05288017	0.17193114	-0.14459858	-0.02611431	1.13214626	1.35568150	4.06925137	-1.11917030	0.31956022	-0.47643658	0.18049111	-0.17421317	0.75809842	0.08841677	-0.17630777	0.58725755	-0.78476836	3.63919365	3.32490565	0.09415804	-0.05633229	0.16166098
5853	58.52000000	-0.14721974	-0.23754370	-0.07775729	0.08853592	-0.16419584	-0.09434950	1.49610606	1.17617386	3.98424974	-1.36633720	0.27678473	-0.50263000	0.21375449	-0.15796054	0.76543564	0.05452732	-0.18115099	0.65149281	-0.55601053	3.40742037	3.67418561	0.13659968	-0.11430262	0.10943210
5854	58.53000000	-0.13159079	-0.18002139	-0.09633059	0.02960974	-0.19703253	-0.15318398	1.83295967	1.07902915	3.73307398	-1.46503774	0.22457065	-0.47338509	0.23951998	-0.14714801	0.78611188	0.05050947	-0.18311583	0.71183565	-0.37945958	3.15475101	3.94414088	0.16970473	-0.13260474	0.10110739
5855	58.54000000	-0.13125244	-0.12452912	-0.12338037	-0.01205553	-0.23498342	-0.19258102	1.87094245	1.03959362	3.33729083	-1.40546499	0.17864370	-0.40263203	0.26108565	-0.13248118	0.74487312	0.07111019	-0.18458969	0.76356341	-0.28753907	2.88422858	4.08468686	0.10982892	-0.14847134	0.11977972
5856	58.55000000	-0.14559158	-0.07431999	-0.15620126	-0.03956827	-0.24660012	-0.21346101	1.76938383	0.98055725	2.91043590	-1.22431962	0.17101888	-0.32477267	0.27467259	-0.12123332	0.71520796	0.12327586	-0.18054950	0.82391345	-0.20606437	2.56948675	4.08818768	0.09840557	-0.18278618	0.12113583
5857	58.56000000	-0.17336356	-0.02135980	-0.17764679	-0.06548248	-0.23423216	-0.20278782	1.69620384	0.93833203	2.55436575	-0.96062438	0.19381541	-0.26186751	0.33092436	-0.10375481	0.75777238	0.18698896	-0.16451122	0.87928984	-0.18390523	2.18186592	3.95556188	0.13571967	-0.20467167	0.11419640
5858	58.57000000	-0.20354323	0.03267483	-0.19121321	-0.09482830	-0.18001192	-0.17524298	1.52180644	0.89017381	2.31518924	-0.70455917	0.24532809	-0.24047664	0.40694037	-0.06348496	0.80752789	0.24806034	-0.14114444	0.93859663	-0.14117645	1.78623278	3.68935322	0.14642912	-0.19885638	0.08952153
5859	58.58000000	-0.23026110	0.08731843	-0.19910144	-0.13142012	-0.08575841	-0.14759480	1.26372576	0.77308240	2.05035091	-0.49966513	0.30167887	-0.25437052	0.48119758	-0.00181899	0.83229040	0.27290864	-0.10711132	0.98922094	-0.05137510	1.48180261	3.29022719	0.16938096	-0.24986567	0.04765348
